<svg width="428" height="91" viewBox="0 0 428 91" fill="none" xmlns="http://www.w3.org/2000/svg">
<path d="M-2.0469 93.0495L426.283 92.1027L426.082 0.850092C420.743 11.8123 405.241 34.2339 385.941 36.2233C361.815 38.7101 344.719 37.5312 342.657 14.4183C340.595 -8.69461 289.359 10.5818 280.311 11.5143C271.264 12.4469 206.987 45.44 148.612 19.4099C101.911 -1.41428 28.6537 32.4505 -2.13767 51.9858L-2.0469 93.0495Z" fill="#3A4161" stroke="black"/>
<path d="M-1.04143 93.0473L427.289 92.1005L427.11 11.3367C421.769 21.0402 406.262 40.8886 386.96 42.6543C362.834 44.8613 345.739 43.8223 343.682 23.3665C341.626 2.91081 290.385 19.9846 281.337 20.8122C272.29 21.6398 208.004 50.8571 149.636 27.8337C102.941 9.41496 29.6746 39.4058 -1.12177 56.7036L-1.04143 93.0473Z" fill="#0A1031" stroke="black"/>
</svg>
