<svg width="428" height="92" viewBox="0 0 428 92" fill="none" xmlns="http://www.w3.org/2000/svg">
<path d="M428 0H0V91C5.35837 80.08 20.8977 57.7547 40.1878 55.8133C64.3005 53.3867 81.3803 54.6 83.3897 77.6533C85.3991 100.707 136.638 81.5967 145.681 80.6867C154.723 79.7767 219.023 47.0167 277.296 73.1033C323.914 93.9727 397.189 60.3633 428 40.95V0Z" fill="#3A4161" stroke="black"/>
<path d="M428 0H0V80.5402C5.35837 70.8754 20.8977 51.1162 40.1878 49.398C64.3005 47.2503 81.3803 48.3241 83.3897 68.7277C85.3991 89.1312 136.638 72.2177 145.681 71.4123C154.723 70.6069 219.023 41.6124 277.296 64.7007C323.914 83.1712 397.189 53.425 428 36.2431V0Z" fill="#0A1031" stroke="black"/>
</svg>
